<svg width="126" height="46" viewBox="0 0 126 46" fill="none" xmlns="http://www.w3.org/2000/svg">
<circle cx="9.04451" cy="22.6111" r="7.91389" fill="#FC4F24" fill-opacity="0.08" stroke="#FC4F24" stroke-width="2.26111"/>
<path d="M41.2892 23.5678C41.2169 23.7367 40.9395 23.8693 40.4572 23.9658C39.9748 24.0623 39.203 24.1708 38.1418 24.2914C37.8282 24.3155 37.3579 24.3396 36.7308 24.3637C36.1279 24.3879 35.4646 24.412 34.7411 24.4361C34.0416 24.4602 33.4025 24.4723 32.8236 24.4723C32.2448 24.4481 31.8468 24.412 31.6298 24.3637C31.6298 24.3637 31.5695 24.424 31.4489 24.5446C31.3524 24.6652 31.3042 24.822 31.3042 25.0149C31.1353 25.3044 30.9183 25.7505 30.653 26.3535C30.4118 26.9565 30.1344 27.6197 29.8209 28.3433C29.5315 29.0668 29.2541 29.7904 28.9888 30.514C28.7476 31.2375 28.5426 31.8646 28.3738 32.3952C28.2049 32.9258 28.1205 33.2876 28.1205 33.4805C27.9035 34.0594 27.7708 34.5538 27.7226 34.9638C27.6743 35.3738 27.5899 35.615 27.4693 35.6874C27.4452 35.7839 27.2884 35.808 26.999 35.7597C26.7096 35.7115 26.4684 35.5788 26.2755 35.3618C25.986 35.1447 25.8172 34.9518 25.769 34.7829C25.7449 34.59 25.8172 34.2282 25.986 33.6976C26.0584 33.3841 26.179 32.9258 26.3478 32.3228C26.5408 31.6958 26.7458 31.0084 26.9628 30.2607C27.204 29.513 27.4452 28.7895 27.6864 28.09C27.9517 27.3665 28.2049 26.7756 28.4461 26.3173C28.7114 25.8591 28.8803 25.4491 28.9526 25.0873C29.025 24.7014 29.1215 24.3517 29.242 24.0381C29.2179 23.7728 29.2179 23.5919 29.242 23.4955C29.2662 23.399 29.3626 23.2543 29.5315 23.0613C29.6521 22.9649 29.7968 22.796 29.9656 22.5548C30.1585 22.2895 30.3756 21.8916 30.6168 21.361C30.6892 21.1198 30.7977 20.7942 30.9424 20.3842C31.1112 19.95 31.268 19.5159 31.4127 19.0818C31.5574 18.6235 31.6901 18.2376 31.8107 17.9241C31.9313 17.6105 31.9916 17.4417 31.9916 17.4176C32.0398 17.3211 32.1121 17.1402 32.2086 16.8749C32.3051 16.5855 32.3775 16.3564 32.4257 16.1876C32.5222 15.8499 32.5945 15.5725 32.6428 15.3555C32.7151 15.1384 32.7031 15.0299 32.6066 15.0299C32.4136 15.0781 32.0277 15.1143 31.4489 15.1384C31.1595 15.1866 30.9424 15.2228 30.7977 15.2469C30.6771 15.2469 30.5686 15.259 30.4721 15.2831C30.2309 15.3072 30.0138 15.2831 29.8209 15.2108C29.6279 15.1384 29.5315 14.9937 29.5315 14.7766C29.5797 14.3907 29.7124 14.0772 29.9294 13.836C30.1706 13.5707 30.4721 13.426 30.8339 13.4019C31.0027 13.3536 31.1836 13.3174 31.3765 13.2933C31.5936 13.2451 31.883 13.1727 32.2448 13.0763C32.7031 12.9798 33.0528 12.9074 33.294 12.8592C33.5593 12.7868 33.7643 12.7748 33.909 12.823C34.0296 12.7507 34.1381 12.6783 34.2346 12.606C34.3311 12.5095 34.3793 12.413 34.3793 12.3165C34.3793 12.1959 34.4275 12.1115 34.524 12.0633C34.6446 11.9909 34.7772 11.9548 34.922 11.9548C35.0667 11.9306 35.2114 11.9427 35.3561 11.9909C35.5249 12.0392 35.6455 12.1236 35.7179 12.2442C35.7661 12.3165 35.8746 12.3768 36.0435 12.4251C36.2123 12.4733 36.5138 12.4733 36.9479 12.4251C37.4062 12.3527 38.0453 12.2321 38.8653 12.0633C39.2995 12.015 39.8421 11.9668 40.4933 11.9186C41.1687 11.8703 41.6993 11.9065 42.0852 12.0271C42.4952 11.9548 42.8569 11.9306 43.1705 11.9548C43.5081 11.9548 43.7373 11.9065 43.8579 11.81C44.3644 11.9065 44.7261 11.9789 44.9432 12.0271C45.1844 12.0512 45.3773 12.1236 45.522 12.2442C45.6185 12.3407 45.6426 12.4371 45.5944 12.5336C45.5703 12.606 45.5582 12.6421 45.5582 12.6421C45.4617 12.5939 45.4738 12.606 45.5944 12.6783C45.715 12.7265 45.7994 12.7748 45.8476 12.823C46.0165 12.8954 46.125 12.9918 46.1732 13.1124C46.2215 13.2089 46.2456 13.3054 46.2456 13.4019C46.2456 13.4983 46.2335 13.5828 46.2094 13.6551C46.1853 13.8722 46.0647 14.0048 45.8476 14.0531C45.6306 14.0772 45.0879 14.0772 44.2196 14.0531C43.1825 13.9084 42.1575 13.8601 41.1445 13.9084C40.1557 13.9325 38.998 14.041 37.6715 14.234C37.1891 14.2581 36.755 14.3304 36.3691 14.451C36.0073 14.5475 35.8023 14.5957 35.754 14.5957C35.6576 14.5957 35.4887 14.7646 35.2476 15.1022C35.0064 15.4158 34.7772 15.8861 34.5602 16.5132C34.4637 16.682 34.2949 17.0679 34.0537 17.6708C33.8125 18.2738 33.5472 18.925 33.2578 19.6244C32.9925 20.3239 32.7513 20.9389 32.5342 21.4695C32.3413 22.0001 32.2207 22.2895 32.1724 22.3378C32.5101 22.4343 33.0528 22.4825 33.8004 22.4825C34.5722 22.4825 35.4164 22.4584 36.3329 22.4101C37.2735 22.3378 38.1297 22.2654 38.9015 22.1931C39.2633 22.1207 39.6371 22.0604 40.023 22.0122C40.433 21.9398 40.6983 21.9278 40.8189 21.976C40.9395 22.0484 41.0481 22.1931 41.1445 22.4101C41.241 22.6031 41.3013 22.8081 41.3254 23.0252C41.3737 23.2422 41.3616 23.4231 41.2892 23.5678ZM47.9623 33.7338C47.4559 34.1679 46.865 34.4212 46.1896 34.4935C45.5384 34.5659 44.8993 34.4694 44.2722 34.2041C43.6451 33.9147 43.1266 33.4805 42.7166 32.9017C42.3066 32.3711 42.0413 31.7681 41.9207 31.0928C41.8001 30.3934 41.788 29.4889 41.8845 28.3795C41.9568 27.4388 42.2583 26.4982 42.7889 25.5576C43.3195 24.5929 43.9587 23.7367 44.7063 22.989C45.4781 22.2413 46.2379 21.7228 46.9855 21.4333C47.3473 21.1921 47.6488 21.0836 47.89 21.1077C48.1553 21.1077 48.5533 21.1319 49.0839 21.1801C49.6386 21.2524 50.0486 21.361 50.3139 21.5057C50.6033 21.6504 50.8325 21.8433 51.0013 22.0845C51.3631 22.4463 51.6042 22.8081 51.7248 23.1699C51.8454 23.5075 51.9057 23.8452 51.9057 24.1828C51.8093 24.7135 51.4475 25.3647 50.8204 26.1364C50.2174 26.8841 49.4215 27.4991 48.4327 27.9815C47.9021 28.1503 47.3232 28.2227 46.6961 28.1986C46.069 28.1745 45.5505 28.0177 45.1405 27.7283C44.6822 27.5353 44.3807 27.5715 44.236 27.8368C44.0913 28.078 43.9587 28.6809 43.8381 29.6457C43.7416 30.5622 43.814 31.2375 44.0551 31.6716C44.2963 32.0817 44.6219 32.3228 45.0319 32.3952C45.5143 32.4917 45.8882 32.564 46.1535 32.6123C46.4429 32.6364 46.7926 32.5279 47.2026 32.2867C47.5885 32.0455 47.8297 31.9128 47.9262 31.8887C48.0226 31.8405 48.095 31.7922 48.1432 31.744C48.2156 31.6716 48.3724 31.5149 48.6135 31.2737C48.7824 31.1049 48.915 30.9843 49.0115 30.9119C49.108 30.8154 49.2165 30.7672 49.3371 30.7672C49.4577 30.7672 49.5662 30.8275 49.6627 30.9481C49.7592 31.0446 49.8557 31.1169 49.9521 31.1652C50.1933 31.1652 50.2415 31.3099 50.0968 31.5993C49.9762 31.8887 49.723 32.2384 49.3371 32.6484C48.9512 33.0343 48.493 33.3961 47.9623 33.7338ZM47.9262 26.0641C48.1915 25.9435 48.4688 25.7747 48.7583 25.5576C49.0477 25.3164 49.2889 25.0632 49.4818 24.7979C49.6989 24.5084 49.8074 24.2673 49.8074 24.0743C49.8074 23.7367 49.6506 23.4593 49.3371 23.2422C49.0236 23.001 48.5533 22.9649 47.9262 23.1337C47.6609 23.206 47.3594 23.3869 47.0217 23.6764C46.6841 23.9417 46.3585 24.2431 46.0449 24.5808C45.7555 24.9185 45.5143 25.2199 45.3214 25.4852C45.1525 25.7505 45.0922 25.9073 45.1405 25.9556C45.2128 26.0761 45.4178 26.1726 45.7555 26.245C46.0932 26.2932 46.467 26.3053 46.877 26.2812C47.3111 26.257 47.6609 26.1847 47.9262 26.0641ZM55.7115 33.9508C55.5185 33.9991 55.2653 34.0232 54.9517 34.0232C54.6382 33.9991 54.3608 33.9629 54.1196 33.9147C53.9026 33.8423 53.794 33.77 53.794 33.6976C53.794 33.577 53.7337 33.5167 53.6131 33.5167C53.6131 33.5167 53.5529 33.4685 53.4323 33.372C53.3358 33.2755 53.179 33.1791 52.9619 33.0826C52.7449 32.7449 52.6363 32.3831 52.6363 31.9972C52.6363 31.5872 52.7449 30.9481 52.9619 30.0798C53.0343 29.4769 53.2634 28.7774 53.6493 27.9815C54.0593 27.1615 54.5538 26.3294 55.1326 25.4852C55.7115 24.6411 56.3144 23.8814 56.9415 23.206C57.5927 22.5307 58.1836 22.0363 58.7142 21.7228C59.0519 21.3851 59.4619 21.2042 59.9443 21.1801C60.4266 21.156 60.8849 21.2645 61.319 21.5057C61.5602 21.6263 61.8014 21.8192 62.0426 22.0845C62.2838 22.3498 62.5129 22.6393 62.7299 22.9528C62.947 23.2663 63.1279 23.5799 63.2726 23.8934C63.345 24.1587 63.3811 24.3999 63.3811 24.617C63.4053 24.8099 63.4053 25.0511 63.3811 25.3405C63.3811 25.63 63.345 26.0641 63.2726 26.6429C63.152 27.0771 63.0435 27.6077 62.947 28.2348C62.8747 28.8618 62.8385 29.4045 62.8385 29.8628C62.7902 30.321 62.8385 30.6466 62.9832 30.8396C63.152 31.0325 63.3932 31.0446 63.7067 30.8757C63.9962 30.731 64.2735 30.6707 64.5388 30.6948C64.8041 30.6948 65.0091 30.7672 65.1539 30.9119C65.3227 31.0566 65.4071 31.2737 65.4071 31.5631C65.4071 31.8525 65.2624 32.154 64.973 32.4676C64.7077 32.757 64.37 33.0102 63.96 33.2273C63.5741 33.4202 63.2003 33.5167 62.8385 33.5167C62.5732 33.5167 62.3199 33.3599 62.0787 33.0464C61.8376 32.7087 61.6205 32.3108 61.4275 31.8525C61.2587 31.3702 61.1019 30.9119 60.9572 30.4778L60.7402 29.6457L59.1845 31.129C58.871 31.4666 58.5574 31.7802 58.2439 32.0696C57.9545 32.3349 57.7736 32.5279 57.7012 32.6484C57.5806 32.8655 57.3515 33.0826 57.0139 33.2996C56.7003 33.5167 56.2662 33.7338 55.7115 33.9508ZM55.82 31.8164C56.23 31.5752 56.7003 31.2255 57.2309 30.7672C57.7615 30.2848 58.2801 29.7663 58.7866 29.2116C59.2931 28.6327 59.7151 28.1021 60.0528 27.6197C60.4628 27.065 60.7763 26.5465 60.9934 26.0641C61.2105 25.5817 61.3673 25.1235 61.4637 24.6893C61.3673 24.424 61.2105 24.1467 60.9934 23.8572C60.7763 23.5437 60.5834 23.3749 60.4146 23.3508C59.884 23.3508 59.3172 23.6884 58.7142 24.3637C58.1354 25.0149 57.5686 25.7264 57.0139 26.4982C56.9174 26.6188 56.7847 26.8118 56.6159 27.0771C56.4471 27.3424 56.2782 27.5956 56.1094 27.8368C55.9647 28.0539 55.8682 28.1986 55.82 28.2709C55.7476 28.3674 55.6029 28.6448 55.3859 29.103C55.1929 29.5372 55 29.9833 54.807 30.4416C54.6141 30.8757 54.5176 31.1652 54.5176 31.3099C54.5176 31.4546 54.5297 31.6113 54.5538 31.7802C54.602 31.949 54.7226 32.0575 54.9155 32.1058C55.1085 32.154 55.41 32.0575 55.82 31.8164ZM69.2914 34.7468C69.0261 34.6985 68.7487 34.5659 68.4593 34.3488C68.194 34.1076 67.9528 33.8423 67.7358 33.5529C67.5428 33.2393 67.4102 32.962 67.3378 32.7208C67.3378 32.6726 67.3016 32.6123 67.2293 32.5399C67.181 32.4676 67.1569 32.4314 67.1569 32.4314C67.0604 32.359 67.0002 32.0455 66.976 31.4908C66.976 30.9119 67.0122 30.2728 67.0846 29.5733C67.1569 28.8739 67.2413 28.3192 67.3378 27.9092C67.4584 27.5233 67.6393 27.0047 67.8805 26.3535C68.1217 25.6782 68.3267 25.0752 68.4955 24.5446L69.4723 22.4463L68.0252 22.0484C67.8564 22.0001 67.7116 21.9036 67.5911 21.7589C67.4946 21.6142 67.4463 21.4936 67.4463 21.3972C67.4463 21.2042 67.5549 20.9751 67.7719 20.7098C67.989 20.4204 68.1458 20.2756 68.2423 20.2756C68.3628 20.2998 68.5799 20.3118 68.8935 20.3118C69.2311 20.3118 69.5567 20.2998 69.8703 20.2756C70.1838 20.2515 70.3767 20.2274 70.4491 20.2033C70.5456 20.1551 70.642 20.0948 70.7385 20.0224C70.835 19.9259 70.9074 19.7933 70.9556 19.6244C71.0762 19.3591 71.1847 19.118 71.2812 18.9009C71.3777 18.6597 71.5103 18.3944 71.6791 18.105C71.848 17.7914 71.9806 17.5261 72.0771 17.3091C72.1977 17.092 72.3786 16.7905 72.6198 16.4046C72.7404 16.2358 72.873 16.0308 73.0177 15.7896C73.1624 15.5484 73.3433 15.3434 73.5604 15.1746C73.7775 14.9816 73.9945 14.8972 74.2116 14.9213C74.4528 14.9213 74.7543 15.0781 75.116 15.3916C75.309 15.6328 75.4175 15.8137 75.4416 15.9343C75.4658 16.0549 75.3693 16.284 75.1522 16.6217C74.9593 17.0317 74.7301 17.4417 74.4648 17.8517C74.2237 18.2617 73.9945 18.6718 73.7775 19.0818C73.3916 19.6124 73.3192 19.9139 73.5604 19.9862C73.8016 20.0586 74.4769 20.0103 75.5863 19.8415C76.2858 19.7209 76.7923 19.7571 77.1058 19.95C77.4194 20.1189 77.6002 20.4083 77.6485 20.8183C77.7208 21.3972 77.6605 21.7469 77.4676 21.8675C77.2746 21.9881 76.7199 22.0484 75.8034 22.0484C75.2246 22.1448 74.7301 22.2051 74.3201 22.2292C73.9101 22.2292 73.6086 22.2292 73.4157 22.2292C73.1021 22.2534 72.8971 22.2654 72.8007 22.2654C72.7042 22.2654 72.5595 22.2895 72.3665 22.3378C72.1736 22.386 72.0289 22.4704 71.9324 22.591C71.86 22.6875 71.7756 22.8322 71.6791 23.0252C71.5827 23.1216 71.438 23.3749 71.245 23.7849C71.0521 24.1949 70.8109 24.6411 70.5215 25.1235C70.1838 26.1364 69.8944 27.1494 69.6532 28.1624C69.412 29.1513 69.2191 30.116 69.0743 31.0566C68.9779 31.6596 68.9899 32.0817 69.1105 32.3228C69.2311 32.5399 69.5447 32.6726 70.0511 32.7208C70.3164 32.7449 70.7385 32.7449 71.3174 32.7208C71.9203 32.6726 72.3906 32.6002 72.7283 32.5037C72.9936 32.3831 73.271 32.2625 73.5604 32.142C73.8498 31.9972 74.1151 31.8525 74.3563 31.7078C74.5734 31.5872 74.7904 31.4666 75.0075 31.346C75.2246 31.2013 75.3331 31.129 75.3331 31.129C75.4537 30.936 75.5863 30.8757 75.7311 30.9481C75.8758 31.0204 75.9964 31.2013 76.0928 31.4908C76.0928 31.7802 76.0325 32.0817 75.9119 32.3952C75.7914 32.7087 75.3452 33.0826 74.5734 33.5167C73.488 34.192 72.4871 34.602 71.5706 34.7468C70.6782 34.8673 69.9185 34.8673 69.2914 34.7468ZM80.2191 33.1549C79.7608 32.7449 79.4111 32.3228 79.1699 31.8887C78.9529 31.4546 78.784 30.7672 78.6634 29.8266C78.6152 29.3924 78.6634 28.8257 78.8081 28.1262C78.9529 27.4027 79.1579 26.6429 79.4232 25.847C79.6885 25.0511 79.99 24.3276 80.3276 23.6764C80.6653 23.001 81.0029 22.4945 81.3406 22.1569C81.63 21.7951 81.8591 21.6022 82.028 21.578C82.2209 21.5298 82.5586 21.6142 83.0409 21.8313C83.3062 22.1448 83.4389 22.4825 83.4389 22.8443C83.4389 23.206 83.2942 23.6161 83.0048 24.0743C82.5224 24.7255 82.1003 25.5455 81.7385 26.5344C81.4009 27.4991 81.1718 28.3674 81.0512 29.1392C80.81 29.9592 80.7014 30.514 80.7256 30.8034C80.7497 31.0928 80.9668 31.2857 81.3768 31.3822C81.835 31.4787 82.3777 31.3099 83.0048 30.8757C83.6318 30.4175 84.2469 29.7904 84.8498 28.9945C85.4528 28.1745 85.9352 27.2821 86.2969 26.3173C86.4417 25.9797 86.5502 25.5817 86.6225 25.1235C86.719 24.6652 86.8155 24.3276 86.912 24.1105C87.0326 23.6281 87.2014 23.2784 87.4185 23.0613C87.6355 22.8201 87.8646 22.6875 88.1058 22.6634C88.347 22.6151 88.552 22.6634 88.7209 22.8081C88.9379 22.9046 89.0706 23.0252 89.1188 23.1699C89.167 23.2905 89.167 23.6281 89.1188 24.1828C89.1188 25.0752 88.9259 25.835 88.54 26.462C88.1541 27.0891 87.8285 27.7524 87.5632 28.4518C87.3461 28.9583 87.0205 29.5251 86.5864 30.1522C86.1764 30.7793 85.7181 31.346 85.2116 31.8525C84.7292 32.359 84.2589 32.7087 83.8007 32.9017C83.1254 33.3358 82.5224 33.5529 81.9918 33.5529C81.4853 33.5288 80.8944 33.3961 80.2191 33.1549ZM92.5599 33.8785C92.4876 33.9026 92.367 33.8905 92.1982 33.8423C92.0293 33.7941 91.8605 33.7338 91.6917 33.6614C91.5228 33.5891 91.4143 33.5288 91.3661 33.4805C91.2696 33.3841 91.1731 33.2393 91.0767 33.0464C91.0043 32.8535 91.0043 32.5761 91.0767 32.2143C91.149 31.8284 91.3902 31.334 91.8002 30.731C91.9208 30.4898 92.0655 30.1281 92.2343 29.6457C92.4032 29.1633 92.572 28.6568 92.7408 28.1262C92.9338 27.5715 93.1026 27.0771 93.2473 26.6429C93.4162 26.2088 93.5367 25.9073 93.6091 25.7385C93.6573 25.3285 93.6332 25.0391 93.5367 24.8702C93.4644 24.6773 93.2594 24.5687 92.9217 24.5446C92.6805 24.5446 92.4876 24.5205 92.3429 24.4723C92.2223 24.424 92.162 24.1828 92.162 23.7487C92.2102 23.4111 92.2946 23.1819 92.4152 23.0613C92.5599 22.9166 92.7529 22.7599 92.9941 22.591C93.2353 22.4704 93.4764 22.386 93.7176 22.3378C93.9829 22.2895 94.2362 22.2775 94.4774 22.3016C94.7186 22.3257 94.9115 22.4101 95.0562 22.5548C95.225 22.6513 95.3336 22.8684 95.3818 23.206C95.43 23.5196 95.4542 23.8452 95.4542 24.1828C95.4783 24.5205 95.5024 24.7737 95.5265 24.9426C95.7677 24.7496 96.0933 24.4843 96.5033 24.1467C96.9375 23.7849 97.3113 23.4472 97.6248 23.1337C98.0107 22.8684 98.469 22.6031 98.9996 22.3378C99.5302 22.0484 99.9161 21.9036 100.157 21.9036C100.423 21.9036 100.688 21.976 100.953 22.1207C101.218 22.2413 101.399 22.3981 101.496 22.591C101.737 23.001 101.846 23.3628 101.821 23.6764C101.821 23.9899 101.689 24.3155 101.424 24.6532C101.182 24.9667 100.881 25.1838 100.519 25.3044C100.181 25.4249 99.9643 25.4852 99.8679 25.4852C99.7231 25.4852 99.5423 25.3767 99.3252 25.1596C99.1081 24.9426 98.9875 24.7617 98.9634 24.617C98.9634 24.5446 98.8066 24.617 98.4931 24.834C98.2037 25.027 97.8781 25.2802 97.5163 25.5938C97.1545 25.8832 96.853 26.1485 96.6119 26.3897C96.2018 26.8962 95.7677 27.5836 95.3095 28.4518C94.8512 29.3201 94.3085 30.3692 93.6815 31.5993C93.392 32.2023 93.187 32.7208 93.0664 33.1549C92.9458 33.5649 92.777 33.8061 92.5599 33.8785ZM109.034 33.7338C108.527 34.1679 107.936 34.4212 107.261 34.4935C106.61 34.5659 105.971 34.4694 105.343 34.2041C104.716 33.9147 104.198 33.4805 103.788 32.9017C103.378 32.3711 103.112 31.7681 102.992 31.0928C102.871 30.3934 102.859 29.4889 102.956 28.3795C103.028 27.4388 103.33 26.4982 103.86 25.5576C104.391 24.5929 105.03 23.7367 105.778 22.989C106.549 22.2413 107.309 21.7228 108.057 21.4333C108.419 21.1921 108.72 21.0836 108.961 21.1077C109.227 21.1077 109.624 21.1319 110.155 21.1801C110.71 21.2524 111.12 21.361 111.385 21.5057C111.675 21.6504 111.904 21.8433 112.072 22.0845C112.434 22.4463 112.675 22.8081 112.796 23.1699C112.917 23.5075 112.977 23.8452 112.977 24.1828C112.88 24.7135 112.519 25.3647 111.892 26.1364C111.289 26.8841 110.493 27.4991 109.504 27.9815C108.973 28.1503 108.394 28.2227 107.767 28.1986C107.14 28.1745 106.622 28.0177 106.212 27.7283C105.753 27.5353 105.452 27.5715 105.307 27.8368C105.163 28.078 105.03 28.6809 104.909 29.6457C104.813 30.5622 104.885 31.2375 105.126 31.6716C105.368 32.0817 105.693 32.3228 106.103 32.3952C106.586 32.4917 106.959 32.564 107.225 32.6123C107.514 32.6364 107.864 32.5279 108.274 32.2867C108.66 32.0455 108.901 31.9128 108.997 31.8887C109.094 31.8405 109.166 31.7922 109.214 31.744C109.287 31.6716 109.444 31.5149 109.685 31.2737C109.854 31.1049 109.986 30.9843 110.083 30.9119C110.179 30.8154 110.288 30.7672 110.408 30.7672C110.529 30.7672 110.637 30.8275 110.734 30.9481C110.83 31.0446 110.927 31.1169 111.023 31.1652C111.265 31.1652 111.313 31.3099 111.168 31.5993C111.047 31.8887 110.794 32.2384 110.408 32.6484C110.022 33.0343 109.564 33.3961 109.034 33.7338ZM108.997 26.0641C109.263 25.9435 109.54 25.7747 109.829 25.5576C110.119 25.3164 110.36 25.0632 110.553 24.7979C110.77 24.5084 110.879 24.2673 110.879 24.0743C110.879 23.7367 110.722 23.4593 110.408 23.2422C110.095 23.001 109.624 22.9649 108.997 23.1337C108.732 23.206 108.431 23.3869 108.093 23.6764C107.755 23.9417 107.43 24.2431 107.116 24.5808C106.827 24.9185 106.586 25.2199 106.393 25.4852C106.224 25.7505 106.163 25.9073 106.212 25.9556C106.284 26.0761 106.489 26.1726 106.827 26.245C107.164 26.2932 107.538 26.3053 107.948 26.2812C108.382 26.257 108.732 26.1847 108.997 26.0641ZM117.036 34.4935C115.83 34.4935 114.95 34.0594 114.395 33.1911C114.226 32.9499 114.142 32.7087 114.142 32.4676C114.166 32.2023 114.238 32.0214 114.359 31.9249C114.503 31.8284 114.672 31.9128 114.865 32.1781C115.203 32.3711 115.685 32.4676 116.312 32.4676C116.626 32.4676 116.951 32.4434 117.289 32.3952C117.627 32.3228 117.964 32.2264 118.302 32.1058C118.664 31.9369 118.905 31.7922 119.026 31.6716C119.146 31.5269 119.122 31.4063 118.953 31.3099H118.99C118.362 31.141 117.723 30.8757 117.072 30.514C116.445 30.1281 115.902 29.718 115.444 29.2839C114.986 28.8257 114.721 28.4156 114.648 28.0539C114.455 27.3062 114.503 26.5465 114.793 25.7747C115.082 24.9788 115.492 24.2793 116.023 23.6764C116.216 23.5558 116.457 23.4111 116.746 23.2422C117.036 23.0493 117.265 22.9407 117.434 22.9166V22.9528C117.892 22.4704 118.447 22.0845 119.098 21.7951C119.773 21.5057 120.485 21.2404 121.233 20.9992L121.775 20.9268C122.065 20.8786 122.306 20.8545 122.499 20.8545C122.475 20.8545 122.523 20.8786 122.643 20.9268C122.764 20.951 122.873 20.9751 122.969 20.9992C123.114 21.0716 123.234 21.1077 123.331 21.1077C123.644 21.156 123.934 21.3007 124.199 21.5419C124.464 21.7831 124.669 22.0725 124.814 22.4101C124.983 22.7237 125.043 23.0252 124.995 23.3146C124.947 23.7728 124.802 24.1828 124.561 24.5446C124.344 24.9064 124.079 25.1114 123.765 25.1596C123.813 25.1355 123.777 25.0993 123.656 25.0511C123.56 24.9788 123.451 24.9064 123.331 24.834L123.222 24.9064C123.222 24.9064 123.21 24.8823 123.186 24.834C123.186 24.7617 123.162 24.6773 123.114 24.5808C123.041 24.4361 123.005 24.2793 123.005 24.1105C123.005 23.9175 123.017 23.7125 123.041 23.4955C123.09 23.2302 123.09 23.0734 123.041 23.0252C123.017 22.9769 122.861 22.9407 122.571 22.9166C122.233 22.8443 121.739 22.9046 121.088 23.0975C120.461 23.2905 119.93 23.5558 119.496 23.8934C118.965 24.2311 118.519 24.5567 118.157 24.8702C117.796 25.1596 117.506 25.4491 117.289 25.7385C117.072 26.0038 116.879 26.3173 116.71 26.6791C116.59 26.8479 116.481 27.0168 116.385 27.1856C116.312 27.3303 116.276 27.463 116.276 27.5836C116.276 27.8489 116.469 28.1262 116.855 28.4156C117.265 28.6809 117.868 28.9945 118.664 29.3563C119.291 29.6216 119.822 29.911 120.256 30.2245C120.69 30.5381 120.991 30.8999 121.16 31.3099C121.208 31.4063 121.22 31.5269 121.196 31.6716C121.196 31.7922 121.172 31.8767 121.124 31.9249C121.172 31.9731 121.196 32.0093 121.196 32.0334V31.9972C121.389 32.2867 121.389 32.5881 121.196 32.9017C121.028 33.2152 120.726 33.4926 120.292 33.7338C119.882 33.9508 119.375 34.1197 118.772 34.2403H118.809C118.495 34.3367 118.182 34.4091 117.868 34.4573C117.579 34.4815 117.301 34.4935 117.036 34.4935Z" fill="#CBCBCB"/>
<path d="M22.8024 26.3173H122.426V28.1262H22.8024V26.3173Z" fill="#CBCBCB"/>
</svg>
