<svg width="196" height="43" viewBox="0 0 196 43" fill="none" xmlns="http://www.w3.org/2000/svg">
<path d="M0 9.73746C0 7.57206 1.75541 5.81665 3.92081 5.81665H27.4457C29.6111 5.81665 31.3665 7.57206 31.3665 9.73746V33.2623C31.3665 35.4277 29.6111 37.1831 27.4457 37.1831H3.92081C1.75541 37.1831 0 35.4277 0 33.2623V9.73746Z" fill="url(#paint0_linear_28_2692)" fill-opacity="0.2"/>
<path d="M21.5644 29.3416V19.5396" stroke="#CD7C7C" stroke-width="1.96041" stroke-linecap="round" stroke-linejoin="round"/>
<path d="M15.6834 29.3417V13.6584" stroke="#CD7C7C" stroke-width="1.96041" stroke-linecap="round" stroke-linejoin="round"/>
<path d="M9.80206 29.3417V23.4604" stroke="#CD7C7C" stroke-width="1.96041" stroke-linecap="round" stroke-linejoin="round"/>
<path d="M60.5844 31H48.9255V30.0461H52.2819V10.756H51.6813C50.8805 10.756 50.1974 10.9091 49.6321 11.2153C48.8078 11.6863 48.1365 12.6756 47.6183 14.183L46.5231 17.3627H45.4632L45.6045 9.80208H63.9054L64.0467 17.3627H62.9868L61.8916 14.183C61.7267 13.7355 61.5736 13.3468 61.4323 13.0171C60.7257 11.5097 59.5245 10.756 57.8287 10.756H57.2281V30.0461H59.6305C60.1251 30.0932 60.4431 30.4112 60.5844 31ZM78.2847 31.3533C76.4004 31.2355 75.211 30.1639 74.7163 28.1383C74.5986 28.468 74.4455 28.786 74.2571 29.0922C73.3149 30.5996 71.8428 31.3533 69.8408 31.3533C69.1813 31.3533 68.5807 31.2709 68.039 31.106C66.2018 30.5172 65.2833 29.1746 65.2833 27.0784C65.3068 23.9929 68.3452 22.3913 74.3984 22.2735V19.9771C74.3984 19.294 74.3513 18.7052 74.2571 18.2106C74.0215 16.8681 73.3503 16.1968 72.2432 16.1968C71.9135 16.1968 71.6191 16.2557 71.36 16.3734C70.9596 16.609 70.6299 17.1978 70.3708 18.1399C70.2766 18.4697 70.2059 18.7052 70.1588 18.8465C69.8055 19.8358 69.1224 20.3304 68.1097 20.3304C67.8741 20.3304 67.6504 20.2951 67.4384 20.2244C66.5669 19.9889 66.1312 19.4118 66.1312 18.4932C66.1312 18.0928 66.2372 17.716 66.4492 17.3627C67.2735 15.973 69.2873 15.2782 72.4906 15.2782C73.3149 15.2782 74.0804 15.3606 74.787 15.5255C77.5192 16.2086 78.8853 18.0222 78.8853 20.9663V28.3503C78.8853 29.4808 79.1443 30.0696 79.6625 30.1168C80.3456 30.0932 80.7577 29.2688 80.8991 27.6437L81.8176 27.679C81.747 28.4091 81.641 29.0098 81.4997 29.4808C81.0757 30.7291 80.004 31.3533 78.2847 31.3533ZM71.678 29.8341C71.8428 29.8341 72.0313 29.7988 72.2432 29.7281C73.2325 29.3513 73.9509 28.3385 74.3984 26.6898V23.2628C73.3385 23.3099 72.467 23.4394 71.784 23.6514C70.5121 24.1225 69.8761 25.1352 69.8761 26.6898C69.8997 28.7389 70.5003 29.787 71.678 29.8341ZM88.9189 30.3641C90.497 30.3641 91.4038 29.7988 91.6393 28.6682C91.6629 28.5034 91.6747 28.3503 91.6747 28.2089C91.6747 27.0077 90.921 26.0067 89.4136 25.2059C89.0838 25.0175 88.5539 24.7702 87.8237 24.464C86.0572 23.6867 84.8913 22.9683 84.3261 22.3089C83.7137 21.6023 83.4075 20.7661 83.4075 19.8004C83.4075 17.7984 84.5027 16.4441 86.6932 15.7375C87.6117 15.4313 88.6363 15.2782 89.7669 15.2782C91.604 15.2782 93.0408 15.608 94.0771 16.2674C94.0771 15.5608 94.2891 15.1722 94.713 15.1016C94.8073 15.078 94.9015 15.0662 94.9957 15.0662V19.4825H93.8651C93.7709 17.3391 92.605 16.2557 90.3675 16.2321C88.8601 16.2321 87.9297 16.7267 87.5764 17.716C87.5058 17.9515 87.4704 18.187 87.4704 18.4226C87.4704 19.4354 88.177 20.2951 89.5902 21.0016C89.8729 21.1665 90.3439 21.3903 91.0034 21.6729C92.8406 22.4973 94.0653 23.251 94.6777 23.934C95.3843 24.7348 95.7376 25.6887 95.7376 26.7957C95.7376 28.8449 94.6777 30.2227 92.5579 30.9293C91.6865 31.212 90.709 31.3533 89.6255 31.3533C87.5529 31.3533 85.8099 30.9882 84.3967 30.2581C84.3967 30.8705 84.2436 31.2238 83.9374 31.318C83.7961 31.3415 83.6312 31.3533 83.4428 31.3533V25.9832H84.644C84.6911 28.8802 86.1161 30.3405 88.9189 30.3641ZM106.337 30.0814C106.478 30.0814 106.607 30.0932 106.725 30.1168C107.031 30.1639 107.184 30.4583 107.184 31H97.3275V30.0814C99.0704 30.0814 99.9654 29.469 100.013 28.2443V8.95417H97.3275V8.03559H104.499V23.1921L111.318 16.7267H108.739V15.8082H114.71C114.71 15.9259 114.698 16.0437 114.674 16.1615C114.604 16.5383 114.309 16.7267 113.791 16.7267C113.603 16.7267 113.414 16.7385 113.226 16.7621C112.778 16.8563 112.142 17.292 111.318 18.0693L108.704 20.5777L114.392 30.0814H114.922C115.087 30.0814 115.228 30.0932 115.346 30.1168C115.628 30.1874 115.77 30.4818 115.77 31L109.905 31.0353L105.595 23.5807L104.499 24.6406V30.0814H106.337ZM134.954 31H123.012V30.0461H125.839V10.756H123.012V9.80208H140.677L140.819 16.7621H139.794L139.017 14.1477C139.017 14.1241 139.005 14.1005 138.981 14.077C138.298 11.863 136.897 10.756 134.777 10.756H130.785V19.5531H137.568V20.613H130.785V30.0461H134.954V31ZM150.534 30.0814C150.676 30.0814 150.805 30.0932 150.923 30.1168C151.229 30.1639 151.382 30.4583 151.382 31H141.525V30.0814C142.185 30.0814 142.715 30.0343 143.115 29.9401C143.892 29.7281 144.281 29.1393 144.281 28.1736V8.95417H141.525V8.03559H148.768V30.0814H150.534ZM157.918 23.3334C157.918 25.5474 158.059 27.1608 158.342 28.1736C158.766 29.681 159.708 30.4347 161.169 30.4347C161.993 30.4347 162.664 30.1874 163.182 29.6928C164.077 28.7978 164.525 26.6309 164.525 23.1921C164.525 21.0488 164.384 19.4825 164.101 18.4932C163.677 16.9623 162.711 16.1968 161.204 16.1968C160.309 16.1968 159.614 16.4676 159.119 17.0094C158.319 17.928 157.918 20.036 157.918 23.3334ZM161.38 15.2782C163.406 15.2782 165.137 15.8317 166.574 16.9387C168.435 18.4226 169.365 20.4835 169.365 23.1214C169.365 25.0999 168.776 26.8429 167.599 28.3503C166.02 30.3523 163.842 31.3533 161.063 31.3533C159.037 31.3533 157.294 30.7409 155.834 29.5161C153.997 27.9616 153.078 25.8536 153.078 23.1921C153.078 21.3078 153.62 19.6591 154.703 18.2459C156.258 16.2674 158.483 15.2782 161.38 15.2782ZM178.763 16.7267H176.643L180.07 27.0077L182.402 19.3411L181.201 15.8082H188.055V16.7267H185.935L189.397 27.0431L192.683 16.7267H190.492V15.8082H195.509C195.509 15.9259 195.497 16.0437 195.474 16.1615C195.45 16.5383 195.227 16.7267 194.803 16.7267C194.331 16.7738 193.884 17.1154 193.46 17.7513L189.044 31.1766H187.878C187.407 31.1766 187.042 31.0942 186.783 30.9293C186.476 30.7174 186.088 29.9401 185.617 28.5976L183.002 20.9663L179.717 31.1766H178.551C178.198 31.1766 177.903 31.1295 177.668 31.0353C177.173 30.8234 176.678 30.0108 176.184 28.5976L172.085 16.7267H170.602V15.8082H178.763V16.7267Z" fill="black"/>
<defs>
<linearGradient id="paint0_linear_28_2692" x1="15.6832" y1="5.81665" x2="15.6832" y2="37.1831" gradientUnits="userSpaceOnUse">
<stop offset="0.125" stop-color="#E51414"/>
<stop offset="0.913462" stop-color="#983A3A"/>
</linearGradient>
</defs>
</svg>
