<svg width="166" height="42" viewBox="0 0 166 42" fill="none" xmlns="http://www.w3.org/2000/svg">
<g clip-path="url(#clip0_28_1919)">
<path d="M31.9239 9.90771H9.90778V31.9238H31.9239V9.90771Z" fill="white"/>
<path d="M31.9215 41.8305L41.8287 31.9233L36.8751 31.0781L31.9215 31.9233L31.0174 36.4543L31.9215 41.8305Z" fill="#EA4335"/>
<path d="M-6.10352e-05 31.9233V38.5281C-6.10352e-05 40.3527 1.47777 41.8305 3.30235 41.8305H9.90718L10.9244 36.8769L9.90718 31.9233L4.50966 31.0781L-6.10352e-05 31.9233Z" fill="#188038"/>
<path d="M41.8287 9.90724V3.30241C41.8287 1.47783 40.3509 0 38.5263 0H31.9215C31.3187 2.45687 31.0174 4.26493 31.0174 5.4242C31.0174 6.58347 31.3187 8.07781 31.9215 9.90724C34.1126 10.5347 35.7638 10.8484 36.8751 10.8484C37.9864 10.8484 39.6376 10.5347 41.8287 9.90724Z" fill="#1967D2"/>
<path d="M41.8299 9.90771H31.9227V31.9238H41.8299V9.90771Z" fill="#FBBC04"/>
<path d="M31.9239 31.9227H9.90778V41.83H31.9239V31.9227Z" fill="#34A853"/>
<path d="M31.9234 0H3.30244C1.47786 0 3.05176e-05 1.47783 3.05176e-05 3.30241V31.9233H9.90727V9.90724H31.9234V0Z" fill="#4285F4"/>
<path d="M14.4222 26.9857C13.5993 26.4298 13.0297 25.618 12.7187 24.5447L14.6286 23.7576C14.802 24.4181 15.1047 24.93 15.5367 25.2932C15.9661 25.6565 16.4889 25.8354 17.0999 25.8354C17.7246 25.8354 18.2612 25.6455 18.7098 25.2657C19.1584 24.8859 19.3841 24.4016 19.3841 23.8154C19.3841 23.2155 19.1474 22.7256 18.674 22.3458C18.2007 21.9661 17.6063 21.7762 16.8962 21.7762H15.7927V19.8855H16.7834C17.3944 19.8855 17.909 19.7204 18.3273 19.3902C18.7456 19.0599 18.9547 18.6086 18.9547 18.0334C18.9547 17.5216 18.7676 17.1143 18.3933 16.8088C18.0191 16.5033 17.5457 16.3492 16.9705 16.3492C16.4091 16.3492 15.9633 16.4978 15.6331 16.7978C15.303 17.0985 15.0549 17.4783 14.912 17.9013L13.0214 17.1143C13.2718 16.4042 13.7314 15.7768 14.4057 15.2346C15.0799 14.6925 15.9413 14.42 16.9871 14.42C17.7604 14.42 18.4566 14.5687 19.0731 14.8686C19.6895 15.1686 20.1739 15.5841 20.5234 16.1125C20.8729 16.6437 21.0463 17.2381 21.0463 17.8986C21.0463 18.5728 20.8839 19.1425 20.5592 19.6103C20.2344 20.0782 19.8354 20.4359 19.362 20.6864V20.7992C19.9732 21.0512 20.5042 21.4651 20.8977 21.9963C21.2967 22.533 21.4976 23.1742 21.4976 23.9227C21.4976 24.6713 21.3077 25.34 20.9279 25.9262C20.5482 26.5124 20.0225 26.9747 19.3565 27.3105C18.6878 27.6462 17.9365 27.8169 17.1026 27.8169C16.1367 27.8196 15.245 27.5416 14.4222 26.9857ZM26.154 17.5078L24.057 19.0242L23.0085 17.4335L26.7705 14.72H28.2125V27.5196H26.154V17.5078Z" fill="#4285F4"/>
</g>
<path d="M64.4231 30.8758C62.715 30.8758 61.251 30.4837 60.0309 29.6993C58.8109 28.9063 57.874 27.7821 57.2204 26.3267C56.5755 24.8627 56.2531 23.111 56.2531 21.0718C56.2531 19.0413 56.5755 17.3114 57.2204 15.8822C57.8653 14.4443 58.7978 13.3462 60.0178 12.588C61.2379 11.8298 62.7063 11.4508 64.4231 11.4508C65.7826 11.4508 66.9896 11.7296 68.0441 12.2874C69.0986 12.8451 69.9439 13.5946 70.5801 14.5358C71.225 15.4769 71.6084 16.5184 71.7304 17.66H68.75C68.6193 16.9454 68.3665 16.3005 67.9918 15.7253C67.6258 15.1414 67.1378 14.6839 66.5277 14.3527C65.9177 14.0129 65.1944 13.8429 64.3578 13.8429C63.2859 13.8429 62.3752 14.0957 61.6257 14.6011C60.8762 15.1066 60.3054 15.8953 59.9133 16.9672C59.5298 18.0391 59.3381 19.4203 59.3381 21.111C59.3381 23.6644 59.7695 25.5337 60.6322 26.7189C61.495 27.8954 62.7368 28.4836 64.3578 28.4836C65.1944 28.4836 65.9177 28.305 66.5277 27.9477C67.1378 27.5817 67.6258 27.098 67.9918 26.4967C68.3665 25.8867 68.6193 25.2243 68.75 24.5097H71.7304C71.6258 25.3376 71.408 26.135 71.0768 26.9019C70.7456 27.6601 70.2838 28.3398 69.6912 28.9412C69.1073 29.5425 68.3796 30.0174 67.5081 30.366C66.6367 30.7059 65.6083 30.8758 64.4231 30.8758ZM78.6063 30.8758C77.7348 30.8758 76.9592 30.719 76.2795 30.4052C75.6084 30.0915 75.0812 29.6383 74.6978 29.0457C74.3143 28.4531 74.1226 27.7385 74.1226 26.9019C74.1226 25.403 74.6498 24.2832 75.7043 23.5424C76.7675 22.8017 78.4669 22.4095 80.8024 22.3659L83.0247 22.3006V21.3202C83.0247 20.5445 82.7937 19.9345 82.3318 19.4901C81.87 19.0456 81.1554 18.8277 80.188 18.8365C79.4734 18.8365 78.8329 19.002 78.2664 19.3332C77.7 19.6644 77.3296 20.209 77.1553 20.9672H74.737C74.7893 20.0696 75.0463 19.3158 75.5082 18.7057C75.9788 18.087 76.6237 17.6208 77.4429 17.307C78.2621 16.9933 79.2207 16.8364 80.3187 16.8364C81.5562 16.8364 82.5715 17.0064 83.3645 17.3462C84.1576 17.6774 84.7458 18.1654 85.1293 18.8103C85.5214 19.4552 85.7175 20.2395 85.7175 21.1633V30.6144H83.3384L83.1292 28.1307C82.6238 29.1677 81.9832 29.8867 81.2076 30.2876C80.432 30.6797 79.5649 30.8758 78.6063 30.8758ZM79.4821 28.9281C79.9091 28.9281 80.3318 28.854 80.7501 28.7059C81.1684 28.549 81.5475 28.3398 81.8874 28.0784C82.2273 27.8082 82.4974 27.5076 82.6979 27.1764C82.907 26.8453 83.0159 26.5054 83.0247 26.1568V23.9215L81.1946 23.9607C80.2621 23.9694 79.4691 24.0653 78.8155 24.2483C78.1706 24.4313 77.6738 24.7145 77.3252 25.098C76.9854 25.4814 76.8154 25.9912 76.8154 26.6274C76.8154 27.3507 77.0638 27.9172 77.5605 28.3268C78.066 28.7276 78.7065 28.9281 79.4821 28.9281ZM92.9631 30.7974C92.1613 30.7974 91.5164 30.6928 91.0284 30.4837C90.5491 30.2745 90.1831 29.9956 89.9304 29.647C89.6776 29.2897 89.5077 28.8889 89.4206 28.4444C89.3421 27.9913 89.3029 27.525 89.3029 27.0457V11.1893H92.0611V26.7581C92.0611 27.3856 92.1831 27.8649 92.4271 28.1961C92.6799 28.5272 93.0633 28.7146 93.5775 28.7581L94.2834 28.7843V30.5621C94.0655 30.6318 93.8389 30.6885 93.6036 30.732C93.377 30.7756 93.1635 30.7974 92.9631 30.7974ZM102.563 30.8758C101.282 30.8758 100.154 30.6013 99.1776 30.0523C98.2016 29.4945 97.439 28.7015 96.89 27.6732C96.3497 26.6448 96.0795 25.4204 96.0795 23.9999C96.0795 22.5969 96.3279 21.3594 96.8247 20.2875C97.3214 19.2068 98.0404 18.3615 98.9815 17.7515C99.9227 17.1415 101.056 16.8364 102.38 16.8364C103.679 16.8364 104.777 17.1153 105.674 17.6731C106.572 18.2308 107.252 19.0151 107.714 20.026C108.176 21.0282 108.406 22.2134 108.406 23.5816V24.5097H98.89C98.8813 25.3202 99.012 26.0479 99.2822 26.6928C99.5524 27.3289 99.9532 27.8344 100.485 28.2091C101.025 28.5751 101.696 28.7581 102.498 28.7581C103.308 28.7581 104.006 28.5751 104.589 28.2091C105.182 27.8431 105.57 27.2984 105.753 26.5751H108.341C108.184 27.4989 107.814 28.2832 107.23 28.9281C106.646 29.573 105.945 30.061 105.125 30.3922C104.306 30.7146 103.452 30.8758 102.563 30.8758ZM98.89 22.6927H105.74C105.74 21.9868 105.618 21.3463 105.374 20.7711C105.13 20.1872 104.755 19.7297 104.25 19.3986C103.753 19.0587 103.125 18.8888 102.367 18.8888C101.592 18.8888 100.947 19.0761 100.433 19.4508C99.9184 19.8256 99.5306 20.3049 99.2691 20.8888C99.0164 21.4727 98.89 22.074 98.89 22.6927ZM111.592 30.6144V17.0979H114.324V19.0456C114.542 18.6796 114.834 18.3354 115.2 18.0129C115.574 17.6905 116.032 17.429 116.572 17.2286C117.121 17.0282 117.753 16.9279 118.468 16.9279C119.313 16.9279 120.093 17.0979 120.808 17.4378C121.531 17.7689 122.11 18.2918 122.546 19.0064C122.982 19.7123 123.2 20.6273 123.2 21.7515V30.6144H120.402V22.0522C120.402 21.0849 120.141 20.3659 119.618 19.8953C119.104 19.4247 118.437 19.1894 117.618 19.1894C117.069 19.1894 116.546 19.2809 116.049 19.4639C115.553 19.6469 115.152 19.9258 114.847 20.3005C114.542 20.6666 114.389 21.1284 114.389 21.6862V30.6144H111.592ZM131.763 30.8758C129.994 30.8758 128.596 30.2701 127.567 29.0588C126.548 27.8387 126.038 26.0827 126.038 23.7908C126.038 22.3877 126.243 21.1676 126.652 20.1306C127.071 19.0848 127.685 18.2744 128.495 17.6992C129.306 17.124 130.317 16.8364 131.528 16.8364C132.129 16.8364 132.67 16.9105 133.149 17.0587C133.628 17.2068 134.047 17.3985 134.404 17.6338C134.761 17.8691 135.062 18.1219 135.306 18.392C135.55 18.6622 135.733 18.9149 135.855 19.1502V11.1893H138.678V30.6144H136.574L136.26 27.8431C136.164 28.1394 136.016 28.4618 135.816 28.8104C135.624 29.159 135.354 29.4902 135.005 29.8039C134.665 30.1176 134.23 30.3747 133.698 30.5752C133.166 30.7756 132.522 30.8758 131.763 30.8758ZM132.299 28.7712C133.554 28.7712 134.461 28.3791 135.018 27.5947C135.576 26.8017 135.855 25.5032 135.855 23.6993C135.846 22.6796 135.72 21.8169 135.476 21.111C135.241 20.4051 134.866 19.8735 134.352 19.5162C133.846 19.1502 133.18 18.9672 132.352 18.9672C131.315 18.9672 130.465 19.3419 129.803 20.0914C129.149 20.8321 128.822 22.0348 128.822 23.6993C128.822 25.3376 129.118 26.5925 129.711 27.464C130.312 28.3355 131.175 28.7712 132.299 28.7712ZM146.315 30.8758C145.444 30.8758 144.668 30.719 143.989 30.4052C143.318 30.0915 142.79 29.6383 142.407 29.0457C142.023 28.4531 141.832 27.7385 141.832 26.9019C141.832 25.403 142.359 24.2832 143.413 23.5424C144.477 22.8017 146.176 22.4095 148.512 22.3659L150.734 22.3006V21.3202C150.734 20.5445 150.503 19.9345 150.041 19.4901C149.579 19.0456 148.864 18.8277 147.897 18.8365C147.183 18.8365 146.542 19.002 145.976 19.3332C145.409 19.6644 145.039 20.209 144.864 20.9672H142.446C142.498 20.0696 142.755 19.3158 143.217 18.7057C143.688 18.087 144.333 17.6208 145.152 17.307C145.971 16.9933 146.93 16.8364 148.028 16.8364C149.265 16.8364 150.281 17.0064 151.074 17.3462C151.867 17.6774 152.455 18.1654 152.838 18.8103C153.231 19.4552 153.427 20.2395 153.427 21.1633V30.6144H151.048L150.838 28.1307C150.333 29.1677 149.692 29.8867 148.917 30.2876C148.141 30.6797 147.274 30.8758 146.315 30.8758ZM147.191 28.9281C147.618 28.9281 148.041 28.854 148.459 28.7059C148.878 28.549 149.257 28.3398 149.597 28.0784C149.936 27.8082 150.207 27.5076 150.407 27.1764C150.616 26.8453 150.725 26.5054 150.734 26.1568V23.9215L148.904 23.9607C147.971 23.9694 147.178 24.0653 146.525 24.2483C145.88 24.4313 145.383 24.7145 145.034 25.098C144.694 25.4814 144.525 25.9912 144.525 26.6274C144.525 27.3507 144.773 27.9172 145.27 28.3268C145.775 28.7276 146.416 28.9281 147.191 28.9281ZM157.012 30.6144V17.0979H159.692V19.8692C159.918 19.2068 160.232 18.6535 160.633 18.209C161.043 17.7558 161.518 17.416 162.058 17.1894C162.598 16.9541 163.169 16.8364 163.77 16.8364C163.953 16.8364 164.128 16.8495 164.293 16.8757C164.459 16.8931 164.589 16.9279 164.685 16.9802V19.6731C164.572 19.6208 164.424 19.5859 164.241 19.5685C164.067 19.5511 163.914 19.538 163.783 19.5293C163.191 19.4857 162.65 19.5162 162.162 19.6208C161.674 19.7254 161.252 19.8997 160.894 20.1437C160.546 20.3877 160.276 20.7058 160.084 21.0979C159.901 21.4901 159.809 21.952 159.809 22.4836V30.6144H157.012Z" fill="black" fill-opacity="0.64"/>
<defs>
<clipPath id="clip0_28_1919">
<rect width="41.8306" height="41.8306" fill="white"/>
</clipPath>
</defs>
</svg>
