<svg width="137" height="42" viewBox="0 0 137 42" fill="none" xmlns="http://www.w3.org/2000/svg">
<g clip-path="url(#clip0_28_1914)">
<path d="M13.9337 1.31337C7.58289 1.78701 2.18402 2.22261 1.93019 2.27362C1.21848 2.40154 0.571032 2.88815 0.266587 3.52859L-0.000102997 4.09211L0.025602 17.5227L0.0633564 30.9533L0.469818 31.7856C0.698754 32.2463 2.24829 34.3976 3.93759 36.612C7.27845 40.9777 7.51943 41.2214 8.78942 41.3493C9.15813 41.3873 11.927 41.2594 14.9249 41.0805C17.9356 40.8886 22.7617 40.5939 25.6584 40.4279C38.0297 39.6709 37.3943 39.7348 38.1053 39.1203C38.9945 38.3778 38.931 39.594 38.9688 23.2705C38.9945 9.43018 38.9816 8.52174 38.7784 8.0991C38.5374 7.62545 38.1053 7.29268 32.4654 3.29783C28.6932 0.634873 28.4265 0.493993 26.7364 0.468084C26.0383 0.442984 20.2716 0.826762 13.9337 1.31337ZM28.2104 3.06708C28.7438 3.30998 32.6437 6.04986 33.2149 6.57533C33.3675 6.72916 33.4181 6.85709 33.3418 6.93401C33.1643 7.08784 9.02961 8.5347 8.33155 8.43187C8.01426 8.38086 7.54434 8.18897 7.27765 8.00923C6.17233 7.25382 3.42911 4.98759 3.42911 4.82161C3.42911 4.38601 3.33995 4.38601 14.0991 3.6055C16.1571 3.46462 19.5358 3.20877 21.5938 3.04198C26.0512 2.68331 27.3854 2.69626 28.2104 3.06708ZM35.8826 10.0706C36.0601 10.2496 36.2127 10.5953 36.2633 10.928C36.3011 11.2357 36.3268 16.9713 36.3011 23.6542C36.2633 35.1255 36.2505 35.8428 36.0344 36.1756C35.9075 36.3804 35.6536 36.5982 35.4625 36.6622C34.9299 36.88 9.6401 38.3268 9.11957 38.173C8.87859 38.109 8.54764 37.9042 8.37011 37.7253L8.06486 37.3925L8.02711 25.025C8.0014 16.3446 8.02711 12.5036 8.12913 12.1579C8.20544 11.9021 8.39582 11.5944 8.56129 11.4924C8.79023 11.3385 10.2892 11.2106 15.4462 10.9038C19.0666 10.6989 24.6679 10.3532 27.8819 10.1613C35.5267 9.68684 35.5018 9.68684 35.8826 10.0706Z" fill="black"/>
<path d="M29.0845 14.3094C27.7125 14.3992 26.4931 14.5272 26.3533 14.6041C25.934 14.8219 25.6802 15.1806 25.6296 15.5902C25.5918 16.0129 25.7187 16.0639 27.09 16.2307L27.6868 16.3076V21.7744C27.6868 25.026 27.6362 27.1772 27.5727 27.1133C27.5093 27.0364 25.7059 24.2714 23.5587 20.968C21.4123 17.6524 19.6339 14.9247 19.6082 14.8996C19.5825 14.8737 18.1856 14.9506 16.5091 15.0664C14.4511 15.2073 13.3209 15.3352 13.0919 15.4631C12.7232 15.655 12.3168 16.3335 12.3168 16.7821C12.3168 17.0509 12.7995 17.1917 13.8157 17.1917H14.3491V32.9137L13.4855 33.1825C12.8124 33.3873 12.5835 33.5152 12.4694 33.7711C12.2662 34.2067 12.279 34.6034 12.4822 34.6034C12.5586 34.6034 13.994 34.5135 15.6448 34.4115C18.9093 34.2196 19.2772 34.1298 19.6202 33.4513C19.7222 33.2464 19.8106 33.0286 19.8106 32.9647C19.8106 32.9137 19.3664 32.7598 18.8322 32.6319C18.286 32.504 17.7397 32.376 17.6257 32.3501C17.4096 32.2862 17.3967 31.8894 17.3967 26.3838V20.4814L21.2581 26.5886C25.3099 32.9898 25.8184 33.7201 26.4409 34.0399C27.2161 34.4496 29.1849 34.1678 30.1754 33.5152L30.4806 33.3233L30.5063 24.592L30.5441 15.8477L31.2172 15.7198C32.0173 15.5659 32.386 15.1951 32.386 14.5547C32.386 14.145 32.3603 14.1191 31.9795 14.132C31.7522 14.1426 30.4437 14.2195 29.0845 14.3094Z" fill="black"/>
</g>
<path d="M57.055 30.6144V11.7122H60.1662L69.4212 25.2156V11.7122H72.5977V30.6144H69.7349L60.2315 16.7449V30.6144H57.055ZM82.0825 30.8758C80.7927 30.8758 79.6685 30.6013 78.7099 30.0523C77.7513 29.4945 77.0062 28.6971 76.4746 27.6601C75.9517 26.623 75.6903 25.3768 75.6903 23.9215C75.6903 22.5097 75.9473 21.2722 76.4615 20.209C76.9757 19.1458 77.7077 18.3179 78.6576 17.7253C79.6162 17.1327 80.7622 16.8364 82.0956 16.8364C83.3853 16.8364 84.5052 17.1197 85.4551 17.6861C86.405 18.2526 87.137 19.063 87.6512 20.1175C88.1741 21.172 88.4355 22.44 88.4355 23.9215C88.4355 25.2897 88.1871 26.4967 87.6904 27.5424C87.2024 28.5795 86.4834 29.3943 85.5335 29.9869C84.5923 30.5795 83.442 30.8758 82.0825 30.8758ZM82.0956 28.4575C82.8276 28.4575 83.4289 28.2571 83.8995 27.8562C84.3788 27.4553 84.7361 26.9063 84.9714 26.2091C85.2067 25.5119 85.3244 24.7189 85.3244 23.83C85.3244 23.0021 85.2198 22.2396 85.0106 21.5424C84.8015 20.8452 84.4572 20.2875 83.9779 19.8692C83.5073 19.4421 82.8799 19.2286 82.0956 19.2286C81.3548 19.2286 80.7404 19.4247 80.2524 19.8169C79.7731 20.2003 79.4158 20.7406 79.1805 21.4378C78.9452 22.1263 78.8276 22.9237 78.8276 23.83C78.8276 24.6492 78.9321 25.4117 79.1413 26.1176C79.3504 26.8148 79.6947 27.3812 80.174 27.817C80.6533 28.244 81.2938 28.4575 82.0956 28.4575ZM96.2593 30.719C95.1874 30.719 94.3552 30.5795 93.7626 30.3007C93.1787 30.0131 92.7735 29.6078 92.5469 29.085C92.3203 28.5621 92.207 27.939 92.207 27.2156V19.3463H90.0109V17.0979H92.2985L93.0959 13.0848H95.3835V17.0848H98.4032V19.3463H95.3835L95.3966 27.098C95.3966 27.4989 95.4402 27.7952 95.5273 27.9869C95.6232 28.1699 95.7713 28.2919 95.9718 28.3529C96.1809 28.4052 96.4554 28.4313 96.7953 28.4313H98.4685V30.4444C98.2855 30.5142 98.0154 30.5752 97.658 30.6275C97.3095 30.6885 96.8432 30.719 96.2593 30.719ZM101.457 30.6144V17.0979H104.502V30.6144H101.457ZM101.404 14.7318V11.7253H104.555V14.7318H101.404ZM113.818 30.8758C112.528 30.8758 111.404 30.6013 110.445 30.0523C109.487 29.4945 108.742 28.6971 108.21 27.6601C107.687 26.623 107.426 25.3768 107.426 23.9215C107.426 22.5097 107.683 21.2722 108.197 20.209C108.711 19.1458 109.443 18.3179 110.393 17.7253C111.352 17.1327 112.498 16.8364 113.831 16.8364C115.121 16.8364 116.241 17.1197 117.191 17.6861C118.14 18.2526 118.872 19.063 119.387 20.1175C119.91 21.172 120.171 22.44 120.171 23.9215C120.171 25.2897 119.923 26.4967 119.426 27.5424C118.938 28.5795 118.219 29.3943 117.269 29.9869C116.328 30.5795 115.177 30.8758 113.818 30.8758ZM113.831 28.4575C114.563 28.4575 115.164 28.2571 115.635 27.8562C116.114 27.4553 116.472 26.9063 116.707 26.2091C116.942 25.5119 117.06 24.7189 117.06 23.83C117.06 23.0021 116.955 22.2396 116.746 21.5424C116.537 20.8452 116.193 20.2875 115.713 19.8692C115.243 19.4421 114.615 19.2286 113.831 19.2286C113.09 19.2286 112.476 19.4247 111.988 19.8169C111.509 20.2003 111.151 20.7406 110.916 21.4378C110.681 22.1263 110.563 22.9237 110.563 23.83C110.563 24.6492 110.668 25.4117 110.877 26.1176C111.086 26.8148 111.43 27.3812 111.909 27.817C112.389 28.244 113.029 28.4575 113.831 28.4575ZM123.081 30.6144V17.0979H126.192V19.0325C126.401 18.684 126.684 18.3484 127.041 18.026C127.407 17.7036 127.856 17.4421 128.388 17.2417C128.919 17.0412 129.542 16.941 130.257 16.941C131.094 16.941 131.869 17.1066 132.584 17.4378C133.307 17.7689 133.887 18.2874 134.322 18.9933C134.767 19.6992 134.989 20.6099 134.989 21.7254V30.6144H131.8V22.1045C131.8 21.2156 131.556 20.5576 131.068 20.1306C130.58 19.6949 129.965 19.477 129.224 19.477C128.719 19.477 128.24 19.5641 127.786 19.7384C127.333 19.904 126.963 20.1611 126.675 20.5097C126.396 20.8496 126.257 21.2766 126.257 21.7907V30.6144H123.081Z" fill="black"/>
<defs>
<clipPath id="clip0_28_1914">
<rect width="38.9946" height="41.8306" fill="white"/>
</clipPath>
</defs>
</svg>
