<svg width="196" height="42" viewBox="0 0 196 42" fill="none" xmlns="http://www.w3.org/2000/svg">
<path d="M37.7593 2.61438H15.2095C14.7211 2.61438 14.2527 2.80774 13.9074 3.15193C13.562 3.49612 13.368 3.96294 13.368 4.4497V6.53599L26.0778 10.4576L39.6008 6.53599V4.4497C39.6008 3.96294 39.4068 3.49612 39.0615 3.15193C38.7161 2.80774 38.2477 2.61438 37.7593 2.61438Z" fill="#0364B8"/>
<path d="M41.7629 22.7522C41.955 22.1504 42.1083 21.5369 42.2219 20.9156C42.2218 20.7629 42.1813 20.613 42.1046 20.4809C42.028 20.3487 41.9178 20.239 41.7852 20.1626L41.7681 20.1522L41.7629 20.1496L27.5473 12.0789C27.4859 12.0392 27.4224 12.003 27.3571 11.9704C27.0852 11.8359 26.7858 11.7659 26.4822 11.7659C26.1787 11.7659 25.8792 11.8359 25.6073 11.9704C25.542 12.0026 25.4785 12.0383 25.4172 12.0776L11.2016 20.1509L11.1963 20.1535L11.1806 20.1626C11.0477 20.2388 10.9372 20.3485 10.8603 20.4806C10.7834 20.6128 10.7428 20.7628 10.7425 20.9156C10.8561 21.5369 11.0095 22.1504 11.2016 22.7522L26.275 33.7393L41.7629 22.7522Z" fill="#0A2767"/>
<path d="M31.7296 6.53601H22.5481L19.8973 10.4576L22.5481 14.3792L31.7296 22.2225H39.5995V14.3792L31.7296 6.53601Z" fill="#28A8EA"/>
<path d="M13.368 6.53601H22.5495V14.3792H13.368V6.53601Z" fill="#0078D4"/>
<path d="M31.7285 6.53601H39.5983V14.3792H31.7285V6.53601Z" fill="#50D9FF"/>
<path d="M31.731 22.2224L22.5495 14.3792H13.368V22.2224L22.5495 30.0656L36.7572 32.3767L31.731 22.2224Z" fill="#0364B8"/>
<path d="M22.5493 14.3792H31.7308V22.2224H22.5493V14.3792Z" fill="#0078D4"/>
<path d="M13.368 22.2224H22.5495V30.0656H13.368V22.2224Z" fill="#064A8C"/>
<path d="M31.7285 22.2224H39.5983V30.0656H31.7285V22.2224Z" fill="#0078D4"/>
<path opacity="0.5" d="M26.7318 32.965L11.2636 21.723L11.9129 20.5857C11.9129 20.5857 26.0065 28.5858 26.2216 28.7061C26.3096 28.7412 26.4039 28.7579 26.4987 28.7552C26.5934 28.7525 26.6866 28.7304 26.7725 28.6904L41.1127 20.5465L41.7632 21.6825L26.7318 32.965Z" fill="#0A2767"/>
<path d="M41.7847 21.6695L41.7663 21.68L41.7624 21.6826L27.5468 29.7533C27.2644 29.9347 26.9401 30.0409 26.6048 30.0618C26.2696 30.0826 25.9345 30.0173 25.6318 29.8722L30.5819 36.488L41.4082 38.8371V38.8423C41.6601 38.6607 41.8651 38.4222 42.0064 38.1463C42.1478 37.8705 42.2215 37.5651 42.2214 37.2553V20.9153C42.2215 21.0682 42.1812 21.2183 42.1045 21.3507C42.0278 21.4832 41.9175 21.5931 41.7847 21.6695Z" fill="#1490DF"/>
<path opacity="0.05" d="M42.2214 37.2558V36.2911L29.1273 28.8557L27.5468 29.7538C27.2644 29.9352 26.9401 30.0414 26.6048 30.0622C26.2696 30.0831 25.9345 30.0178 25.6318 29.8727L30.5819 36.4885L41.4082 38.8375V38.8428C41.6601 38.6612 41.8651 38.4227 42.0064 38.1468C42.1478 37.8709 42.2215 37.5656 42.2214 37.2558Z" fill="black"/>
<path opacity="0.1" d="M42.1559 37.7564L27.8025 29.6086L27.5468 29.7524C27.2646 29.9341 26.9403 30.0405 26.605 30.0616C26.2697 30.0826 25.9346 30.0176 25.6318 29.8727L30.5819 36.4885L41.4082 38.8375V38.8427C41.7753 38.5777 42.0394 38.1944 42.1559 37.7578V37.7564Z" fill="black"/>
<path d="M11.2016 21.6865V21.6735H11.1885L11.1491 21.6473C11.0238 21.5706 10.9204 21.4629 10.8492 21.3346C10.7779 21.2064 10.7412 21.0619 10.7425 20.9153V37.2553C10.7422 37.5129 10.7928 37.7681 10.8916 38.0061C10.9903 38.2442 11.1353 38.4605 11.318 38.6426C11.5008 38.8248 11.7178 38.9692 11.9567 39.0676C12.1955 39.166 12.4515 39.2165 12.71 39.2162H40.2545C40.4184 39.2146 40.5814 39.1926 40.7398 39.1508C40.822 39.1365 40.9016 39.1101 40.9759 39.0724C41.0038 39.0697 41.0307 39.0607 41.0546 39.0462C41.162 39.0025 41.2633 38.9454 41.3563 38.8763C41.3825 38.8632 41.3956 38.8632 41.4088 38.8371L11.2016 21.6865Z" fill="#28A8EA"/>
<path opacity="0.1" d="M23.8589 32.2448V10.8929C23.8575 10.4312 23.6729 9.98877 23.3453 9.66228C23.0177 9.3358 22.5738 9.15177 22.1105 9.15039H13.4051V18.8969L11.2016 20.1492L11.195 20.1518L11.1793 20.161C11.0464 20.2374 10.9361 20.3474 10.8595 20.4798C10.7828 20.6122 10.7424 20.7624 10.7425 20.9152V20.9218V20.9152V33.9873H22.1105C22.5738 33.9859 23.0177 33.8019 23.3453 33.4754C23.6729 33.1489 23.8575 32.7065 23.8589 32.2448Z" fill="black"/>
<path opacity="0.2" d="M22.5473 33.552V12.2001C22.5459 11.7384 22.3612 11.296 22.0337 10.9695C21.7061 10.643 21.2621 10.459 20.7989 10.4576H13.4051V18.897L11.2016 20.1493L11.195 20.1519L11.1793 20.161C11.0464 20.2375 10.9361 20.3474 10.8595 20.4798C10.7828 20.6122 10.7424 20.7624 10.7425 20.9153V20.9218V20.9153V35.2945H20.7989C21.2621 35.2932 21.7061 35.1091 22.0337 34.7826C22.3612 34.4562 22.5459 34.0137 22.5473 33.552Z" fill="black"/>
<path opacity="0.2" d="M22.5473 30.9376V12.2001C22.5459 11.7384 22.3612 11.296 22.0337 10.9695C21.7061 10.643 21.2621 10.459 20.7989 10.4576H13.4051V18.897L11.2016 20.1493L11.195 20.1519L11.1793 20.161C11.0464 20.2375 10.9361 20.3474 10.8595 20.4798C10.7828 20.6122 10.7424 20.7624 10.7425 20.9153V20.9218V20.9153V32.6801H20.7989C21.2621 32.6787 21.7061 32.4947 22.0337 32.1682C22.3612 31.8417 22.5459 31.3993 22.5473 30.9376Z" fill="black"/>
<path opacity="0.2" d="M21.2356 30.9376V12.2001C21.2343 11.7384 21.0496 11.296 20.722 10.9695C20.3944 10.643 19.9505 10.459 19.4872 10.4576H13.4051V18.897L11.2016 20.1493L11.195 20.1519L11.1793 20.161C11.0464 20.2375 10.9361 20.3474 10.8595 20.4798C10.7828 20.6122 10.7424 20.7624 10.7425 20.9153V20.9218V20.9153V32.6801H19.4872C19.9505 32.6787 20.3944 32.4947 20.722 32.1682C21.0496 31.8417 21.2343 31.3993 21.2356 30.9376Z" fill="black"/>
<path d="M1.99793 10.4576H19.4874C19.9511 10.4576 20.3958 10.6412 20.7237 10.968C21.0516 11.2948 21.2358 11.738 21.2358 12.2001V29.6304C21.2358 30.0926 21.0516 30.5358 20.7237 30.8626C20.3958 31.1893 19.9511 31.3729 19.4874 31.3729H1.99793C1.53422 31.3729 1.0895 31.1893 0.761612 30.8626C0.43372 30.5358 0.249512 30.0926 0.249512 29.6304L0.249512 12.2001C0.249512 11.738 0.43372 11.2948 0.761612 10.968C1.0895 10.6412 1.53422 10.4576 1.99793 10.4576Z" fill="#0078D4"/>
<path d="M5.32036 17.6058C5.78494 16.6191 6.53497 15.7933 7.47408 15.2346C8.5145 14.641 9.69913 14.3452 10.8975 14.3797C12.0071 14.3557 13.1019 14.636 14.0625 15.1901C14.9666 15.7269 15.6948 16.5139 16.1585 17.4555C16.6635 18.4934 16.9152 19.6356 16.893 20.7889C16.9173 21.9935 16.6581 23.1871 16.1362 24.2739C15.6624 25.249 14.9123 26.0643 13.9785 26.619C12.9803 27.1908 11.8439 27.4788 10.6929 27.4517C9.55891 27.4786 8.43927 27.1951 7.45572 26.6321C6.54431 26.0945 5.80754 25.3066 5.33348 24.3628C4.82494 23.3402 4.5699 22.211 4.58978 21.0699C4.56778 19.8751 4.81756 18.6908 5.32036 17.6058ZM7.61574 23.1719C7.86323 23.7957 8.28299 24.3369 8.82638 24.7327C9.3801 25.119 10.0434 25.3183 10.7191 25.3014C11.4389 25.3293 12.1482 25.1233 12.7403 24.7144C13.2777 24.3188 13.6867 23.7748 13.9169 23.1497C14.1749 22.4533 14.3021 21.7155 14.292 20.9732C14.3 20.2239 14.1802 19.4786 13.9379 18.7693C13.724 18.1311 13.3295 17.5682 12.802 17.1483C12.2255 16.7189 11.5182 16.5006 10.7991 16.53C10.1087 16.5126 9.43056 16.7135 8.8618 17.1039C8.30774 17.5004 7.87829 18.0458 7.62361 18.6764C7.0602 20.1222 7.05693 21.7252 7.61443 23.1732L7.61574 23.1719Z" fill="white"/>
<path d="M73.2016 34.9804C70.7981 34.9804 68.7179 34.4497 66.9611 33.3882C65.2164 32.3146 63.8682 30.7712 62.9166 28.7581C61.9771 26.7328 61.5074 24.2927 61.5074 21.4378C61.5074 18.5584 61.9832 16.1061 62.9349 14.0808C63.8987 12.0433 65.253 10.4877 66.9977 9.41408C68.7545 8.32823 70.8225 7.7853 73.2016 7.7853C75.5686 7.7853 77.6183 8.32823 79.3507 9.41408C81.0954 10.4877 82.4375 12.0433 83.3769 14.0808C84.3286 16.1061 84.8044 18.5584 84.8044 21.4378C84.8044 24.2927 84.3347 26.7267 83.3952 28.7398C82.4558 30.7529 81.1137 32.2963 79.369 33.3699C77.6366 34.4436 75.5808 34.9804 73.2016 34.9804ZM73.2016 31.6313C74.7389 31.6313 76.0505 31.2775 77.1363 30.5699C78.2344 29.8623 79.0701 28.7581 79.6436 27.2574C80.217 25.7568 80.5037 23.8352 80.5037 21.4927C80.5037 19.0891 80.2109 17.1248 79.6253 15.5998C79.0518 14.0747 78.2161 12.9523 77.118 12.2324C76.0322 11.5004 74.7267 11.1344 73.2016 11.1344C71.6766 11.1344 70.3589 11.5004 69.2487 12.2324C68.1506 12.9645 67.3027 14.093 66.7048 15.6181C66.107 17.1431 65.8081 19.1013 65.8081 21.4927C65.8081 23.8474 66.107 25.7751 66.7048 27.2757C67.3027 28.7642 68.1506 29.8623 69.2487 30.5699C70.3589 31.2775 71.6766 31.6313 73.2016 31.6313ZM96.3234 34.9804C95.3717 34.9682 94.4628 34.8279 93.5965 34.5595C92.7303 34.2911 91.9556 33.8884 91.2723 33.3516C90.6013 32.8148 90.0645 32.1499 89.6618 31.3568C89.2714 30.5638 89.0762 29.6426 89.0762 28.5934V15.6913H93.0109V28.1725C93.0109 29.3071 93.3647 30.2283 94.0724 30.9359C94.78 31.6435 95.8475 31.9974 97.275 31.9974C98.5683 31.9974 99.6053 31.6618 100.386 30.9908C101.167 30.3076 101.557 29.3132 101.557 28.0078V15.6913H105.455V34.6144H102.418L101.978 30.9542C101.759 31.9425 101.362 32.7355 100.789 33.3333C100.228 33.9189 99.5565 34.346 98.7757 34.6144C98.007 34.8706 97.1896 34.9926 96.3234 34.9804ZM118.045 34.7425C116.642 34.7425 115.556 34.5534 114.788 34.1752C114.019 33.7969 113.482 33.254 113.177 32.5464C112.872 31.8265 112.72 30.9603 112.72 29.9477V18.5096H109.645V15.6913H112.848L113.799 10.1278H116.654V15.673H120.9V18.5096H116.654L116.673 29.8013C116.673 30.4235 116.734 30.881 116.856 31.1738C116.99 31.4544 117.209 31.6374 117.514 31.7228C117.832 31.796 118.259 31.8326 118.795 31.8326H120.992V34.3765C120.76 34.4741 120.4 34.5595 119.912 34.6327C119.436 34.7059 118.814 34.7425 118.045 34.7425ZM130.416 34.8706C129.293 34.8706 128.391 34.7242 127.707 34.4314C127.036 34.1386 126.524 33.7481 126.17 33.2601C125.816 32.7599 125.578 32.1987 125.456 31.5764C125.347 30.942 125.292 30.2893 125.292 29.6182V7.41929H129.153V29.2156C129.153 30.0941 129.324 30.7651 129.666 31.2287C130.019 31.6923 130.556 31.9547 131.276 32.0157L132.264 32.0523V34.5412C131.959 34.6388 131.642 34.7181 131.313 34.7791C130.995 34.8401 130.696 34.8706 130.416 34.8706ZM143.417 34.9804C141.648 34.9804 140.104 34.6022 138.787 33.8457C137.469 33.0771 136.444 31.9669 135.712 30.515C134.98 29.0631 134.614 27.3062 134.614 25.2443C134.614 23.2556 134.962 21.5171 135.657 20.0286C136.353 18.5401 137.353 17.3872 138.659 16.5697C139.976 15.7401 141.569 15.3253 143.435 15.3253C145.217 15.3253 146.76 15.7157 148.065 16.4965C149.371 17.2652 150.383 18.3937 151.103 19.8822C151.823 21.3584 152.183 23.1458 152.183 25.2443C152.183 27.1598 151.848 28.8496 151.177 30.3137C150.505 31.7777 149.517 32.9246 148.212 33.7542C146.918 34.5717 145.32 34.9804 143.417 34.9804ZM143.435 31.9608C144.521 31.9608 145.424 31.6801 146.144 31.1189C146.864 30.5455 147.407 29.7463 147.773 28.7215C148.139 27.6845 148.322 26.4888 148.322 25.1345C148.322 23.8779 148.157 22.7371 147.827 21.7123C147.51 20.6752 146.992 19.8517 146.272 19.2416C145.564 18.6316 144.619 18.3266 143.435 18.3266C142.349 18.3266 141.434 18.6072 140.69 19.1684C139.958 19.7175 139.409 20.5044 139.043 21.5293C138.677 22.5419 138.494 23.7437 138.494 25.1345C138.494 26.3668 138.659 27.5014 138.988 28.5385C139.318 29.5755 139.842 30.4052 140.562 31.0274C141.294 31.6496 142.252 31.9608 143.435 31.9608ZM164.22 34.9804C162.451 34.9804 160.907 34.6022 159.59 33.8457C158.272 33.0771 157.247 31.9669 156.515 30.515C155.783 29.0631 155.417 27.3062 155.417 25.2443C155.417 23.2556 155.765 21.5171 156.46 20.0286C157.156 18.5401 158.156 17.3872 159.462 16.5697C160.779 15.7401 162.371 15.3253 164.238 15.3253C166.019 15.3253 167.563 15.7157 168.868 16.4965C170.174 17.2652 171.186 18.3937 171.906 19.8822C172.626 21.3584 172.986 23.1458 172.986 25.2443C172.986 27.1598 172.65 28.8496 171.979 30.3137C171.308 31.7777 170.32 32.9246 169.015 33.7542C167.721 34.5717 166.123 34.9804 164.22 34.9804ZM164.238 31.9608C165.324 31.9608 166.227 31.6801 166.947 31.1189C167.667 30.5455 168.209 29.7463 168.575 28.7215C168.941 27.6845 169.125 26.4888 169.125 25.1345C169.125 23.8779 168.96 22.7371 168.63 21.7123C168.313 20.6752 167.795 19.8517 167.075 19.2416C166.367 18.6316 165.422 18.3266 164.238 18.3266C163.152 18.3266 162.237 18.6072 161.493 19.1684C160.761 19.7175 160.212 20.5044 159.846 21.5293C159.48 22.5419 159.297 23.7437 159.297 25.1345C159.297 26.3668 159.462 27.5014 159.791 28.5385C160.12 29.5755 160.645 30.4052 161.365 31.0274C162.097 31.6496 163.055 31.9608 164.238 31.9608ZM177.263 34.6144V7.41929H181.18V24.7136L189.543 15.6913H193.935L187.091 22.9933L194.338 34.6144H190.275L184.584 25.4822L181.18 29.0143V34.6144H177.263Z" fill="#0078D4"/>
</svg>
