<svg width="143" height="42" viewBox="0 0 143 42" fill="none" xmlns="http://www.w3.org/2000/svg">
<g clip-path="url(#clip0_28_1936)">
<path fill-rule="evenodd" clip-rule="evenodd" d="M15.337 0C13.0246 0.00170563 11.1532 1.87449 11.1549 4.1822C11.1532 6.48992 13.0263 8.3627 15.3387 8.36441H19.5224V4.18391C19.5241 1.87619 17.651 0.00341126 15.337 0C15.3387 0 15.3387 0 15.337 0M15.337 11.1548H4.18374C1.87141 11.1565 -0.00170437 13.0293 4.6706e-06 15.337C-0.00341342 17.6447 1.8697 19.5175 4.18203 19.5209H15.337C17.6493 19.5192 19.5224 17.6464 19.5207 15.3387C19.5224 13.0293 17.6493 11.1565 15.337 11.1548Z" fill="#36C5F0"/>
<path fill-rule="evenodd" clip-rule="evenodd" d="M41.8294 15.337C41.8311 13.0293 39.958 11.1565 37.6457 11.1548C35.3333 11.1565 33.4602 13.0293 33.4619 15.337V19.5209H37.6457C39.958 19.5192 41.8311 17.6464 41.8294 15.337ZM30.6745 15.337V4.1822C30.6762 1.87619 28.8048 0.00341126 26.4925 0C24.1801 0.00170563 22.307 1.87449 22.3087 4.1822V15.337C22.3053 17.6447 24.1784 19.5175 26.4907 19.5209C28.8031 19.5192 30.6762 17.6464 30.6745 15.337Z" fill="#2EB67D"/>
<path fill-rule="evenodd" clip-rule="evenodd" d="M26.4925 41.8301C28.8048 41.8284 30.6779 39.9556 30.6762 37.6479C30.6779 35.3402 28.8048 33.4674 26.4925 33.4657H22.3087V37.6479C22.307 39.9539 24.1801 41.8267 26.4925 41.8301ZM26.4925 30.6736H37.6474C39.9597 30.6719 41.8328 28.7991 41.8311 26.4914C41.8345 24.1837 39.9614 22.3109 37.6491 22.3075H26.4942C24.1818 22.3092 22.3087 24.182 22.3104 26.4897C22.3087 28.7991 24.1801 30.6719 26.4925 30.6736Z" fill="#ECB22E"/>
<path fill-rule="evenodd" clip-rule="evenodd" d="M0.000123239 26.4908C-0.0015858 28.7985 1.87153 30.6713 4.18386 30.673C6.4962 30.6713 8.36931 28.7985 8.3676 26.4908V22.3086H4.18386C1.87153 22.3103 -0.0015858 24.1831 0.000123239 26.4908ZM11.1551 26.4908V37.6456C11.1516 39.9533 13.0247 41.8261 15.3371 41.8295C17.6494 41.8278 19.5225 39.955 19.5208 37.6473V26.4942C19.5242 24.1865 17.6511 22.3137 15.3388 22.3103C13.0247 22.3103 11.1533 24.1831 11.1551 26.4908C11.1551 26.4925 11.1551 26.4908 11.1551 26.4908Z" fill="#E01E5A"/>
</g>
<path d="M68.6119 32.9281C67.4825 32.9281 66.3792 32.7869 65.3021 32.5046C64.225 32.2222 63.2419 31.7987 62.353 31.234C61.4641 30.6693 60.7321 29.9634 60.1569 29.1163C59.5922 28.2692 59.2524 27.2758 59.1373 26.1359H63.8276C63.9844 26.8261 64.2825 27.4065 64.7217 27.8771C65.1714 28.3477 65.7465 28.7085 66.4472 28.9594C67.1583 29.2104 67.9688 29.3359 68.8786 29.3359C69.6002 29.3359 70.2852 29.2313 70.9335 29.0222C71.5819 28.813 72.11 28.4941 72.5179 28.0653C72.9257 27.6365 73.1296 27.098 73.1296 26.4496C73.1296 25.6757 72.8473 25.0953 72.2826 24.7084C71.7179 24.311 70.9492 23.9973 69.9767 23.7672L65.7256 22.8417C64.523 22.5907 63.472 22.2038 62.5727 21.6809C61.6838 21.1476 60.9988 20.4574 60.5177 19.6103C60.0367 18.7528 59.7961 17.7122 59.7961 16.4887C59.7961 15.0769 60.1831 13.8586 60.9569 12.8338C61.7413 11.8089 62.8027 11.0246 64.1413 10.4808C65.4903 9.92653 67.0015 9.6494 68.6747 9.6494C70.5675 9.6494 72.1623 9.9579 73.4591 10.5749C74.7663 11.1814 75.765 12.0076 76.4552 13.0534C77.1454 14.0887 77.4957 15.2442 77.5062 16.5201H72.9257C72.8421 15.7357 72.6015 15.1083 72.2041 14.6377C71.8067 14.1566 71.2943 13.8115 70.6669 13.6024C70.0499 13.3828 69.344 13.273 68.5492 13.273C67.1792 13.273 66.1805 13.5501 65.5531 14.1044C64.9256 14.6586 64.6119 15.3018 64.6119 16.0338C64.6119 16.724 64.8472 17.2835 65.3178 17.7122C65.7988 18.1305 66.5675 18.4495 67.6237 18.6691L71.561 19.5162C73.0251 19.7985 74.212 20.2482 75.1218 20.8652C76.0316 21.4718 76.6957 22.209 77.114 23.077C77.5323 23.945 77.7415 24.9176 77.7415 25.9947C77.7415 27.3646 77.3493 28.5725 76.565 29.6183C75.7911 30.6536 74.7192 31.464 73.3493 32.0497C71.9793 32.6353 70.4002 32.9281 68.6119 32.9281ZM86.4281 32.8967C85.2359 32.8967 84.2895 32.7556 83.5888 32.4732C82.8882 32.1908 82.3705 31.8196 82.0359 31.3595C81.7012 30.8889 81.4868 30.3712 81.3927 29.8065C81.2986 29.2313 81.2516 28.6509 81.2516 28.0653V9.3043H85.7379V27.5006C85.7379 28.0967 85.8634 28.583 86.1144 28.9594C86.3758 29.3255 86.8621 29.5503 87.5732 29.634L88.3418 29.681V32.5046C88.0281 32.6092 87.7091 32.698 87.385 32.7712C87.0608 32.8549 86.7418 32.8967 86.4281 32.8967ZM96.239 32.9281C95.2141 32.9281 94.2834 32.7346 93.4468 32.3477C92.6206 31.9608 91.967 31.4013 91.486 30.6693C91.0049 29.9268 90.7644 29.0274 90.7644 27.9712C90.7644 26.1934 91.4285 24.8444 92.7566 23.9241C94.0847 22.9934 96.1815 22.5123 99.0469 22.4809L101.086 22.4496V21.477C101.086 20.7345 100.866 20.1646 100.427 19.7672C99.9985 19.3593 99.324 19.1606 98.4037 19.1711C97.7449 19.1815 97.1122 19.3384 96.5057 19.6417C95.9096 19.9449 95.4965 20.4731 95.2664 21.226H91.4546C91.5174 20.0548 91.8572 19.0927 92.4742 18.3397C93.1017 17.5763 93.9435 17.0116 94.9998 16.6456C96.056 16.2691 97.2638 16.0809 98.6233 16.0809C100.276 16.0809 101.604 16.29 102.608 16.7083C103.612 17.1162 104.338 17.707 104.788 18.4809C105.248 19.2443 105.478 20.1541 105.478 21.2103V32.6144H101.651L101.274 29.8222C100.72 30.9934 100.025 31.8039 99.188 32.2536C98.3619 32.7033 97.3789 32.9281 96.239 32.9281ZM97.7919 29.9163C98.1998 29.9163 98.5972 29.8431 98.9841 29.6967C99.3815 29.5398 99.7371 29.3359 100.051 29.0849C100.365 28.8235 100.61 28.5307 100.788 28.2065C100.976 27.8823 101.076 27.5477 101.086 27.2026V24.8025L99.439 24.8339C98.6756 24.8444 97.9645 24.9385 97.3057 25.1163C96.6468 25.2836 96.1135 25.5607 95.7056 25.9476C95.3083 26.3346 95.1096 26.8574 95.1096 27.5163C95.1096 28.2692 95.3658 28.8601 95.8782 29.2889C96.4011 29.7072 97.039 29.9163 97.7919 29.9163ZM116.252 32.9281C114.746 32.9281 113.402 32.5935 112.221 31.9242C111.039 31.2549 110.108 30.298 109.428 29.0536C108.759 27.7986 108.424 26.3032 108.424 24.5672C108.424 22.894 108.749 21.4195 109.397 20.1436C110.045 18.8678 110.955 17.8743 112.126 17.1632C113.308 16.4416 114.683 16.0809 116.252 16.0809C117.611 16.0809 118.783 16.358 119.766 16.9122C120.759 17.4665 121.538 18.2142 122.103 19.1554C122.678 20.0966 123.008 21.1476 123.091 22.3084H119.279C119.206 21.8796 119.055 21.4561 118.825 21.0378C118.594 20.609 118.27 20.2587 117.852 19.9868C117.434 19.7044 116.911 19.5632 116.283 19.5632C115.217 19.5632 114.349 19.9763 113.679 20.8025C113.021 21.6182 112.691 22.8626 112.691 24.5359C112.691 26.115 113.015 27.3699 113.664 28.3006C114.312 29.2209 115.217 29.681 116.377 29.681C116.994 29.681 117.507 29.5294 117.915 29.2261C118.333 28.9228 118.657 28.562 118.887 28.1437C119.117 27.715 119.264 27.3176 119.327 26.9516H123.044C122.971 28.0705 122.647 29.0849 122.072 29.9947C121.496 30.8941 120.712 31.6104 119.719 32.1438C118.736 32.6667 117.58 32.9281 116.252 32.9281ZM126.258 32.6144V9.3043H130.839V23.1241L136.8 16.3946H141.725L135.827 22.8574L141.929 32.6144H137.364L132.988 25.6182L130.839 27.9084V32.6144H126.258Z" fill="black"/>
<defs>
<clipPath id="clip0_28_1936">
<rect width="41.8306" height="41.8306" fill="white"/>
</clipPath>
</defs>
</svg>
