<svg width="183" height="42" viewBox="0 0 183 42" fill="none" xmlns="http://www.w3.org/2000/svg">
<g clip-path="url(#clip0_28_1931)">
<path fill-rule="evenodd" clip-rule="evenodd" d="M32.4434 2.24902H4.38032C3.22089 2.24902 2.10887 2.70823 1.28848 3.52579C0.468094 4.34335 0.00642011 5.45242 0.00485754 6.60941V34.5723C0.00252836 35.1472 0.113984 35.7169 0.332828 36.2487C0.551673 36.7804 0.873598 37.2639 1.28013 37.6712C1.68666 38.0785 2.16979 38.4017 2.7018 38.6222C3.23382 38.8427 3.80423 38.9563 4.38032 38.9563H32.4434C33.019 38.9555 33.5888 38.8414 34.1201 38.6205C34.6514 38.3997 35.1339 38.0763 35.5398 37.6691C35.9457 37.2619 36.2671 36.7787 36.4856 36.2473C36.704 35.7159 36.8153 35.1467 36.813 34.5723V6.60941C36.8114 5.45344 36.3505 4.34526 35.5314 3.52787C34.7123 2.71048 33.6018 2.25058 32.4434 2.24902ZM15.8792 28.6879C15.8784 28.88 15.8396 29.0701 15.765 29.2473C15.6905 29.4244 15.5816 29.5851 15.4446 29.7202C15.3076 29.8552 15.1453 29.9619 14.9669 30.0342C14.7884 30.1065 14.5975 30.1429 14.405 30.1413H8.27223C7.88696 30.1398 7.518 29.986 7.24613 29.7136C6.97425 29.4412 6.82161 29.0723 6.82161 28.6879V10.4755C6.82161 10.091 6.97425 9.72222 7.24613 9.44982C7.518 9.17741 7.88696 9.02359 8.27223 9.02203H14.405C14.7908 9.02358 15.1603 9.17721 15.4332 9.44945C15.706 9.72169 15.8599 10.0905 15.8615 10.4755L15.8792 28.6879ZM30.0316 20.3261C30.0316 20.5184 29.9934 20.7089 29.9191 20.8864C29.8448 21.0639 29.7359 21.2249 29.5988 21.3601C29.4616 21.4953 29.299 21.602 29.1202 21.674C28.9414 21.746 28.7501 21.7819 28.5574 21.7795H22.4247C22.0388 21.778 21.6693 21.6244 21.3965 21.3521C21.1236 21.0799 20.9697 20.7111 20.9681 20.3261V10.4755C20.9697 10.0905 21.1236 9.72169 21.3965 9.44945C21.6693 9.17721 22.0388 9.02358 22.4247 9.02203H28.5574C28.9426 9.02359 29.3116 9.17741 29.5835 9.44982C29.8554 9.72222 30.008 10.091 30.008 10.4755L30.0316 20.3261Z" fill="url(#paint0_linear_28_1931)"/>
<path d="M76.2761 4.93822V12.0349H67.8495V38.9563H59.7236V12.0349H51.2971V4.93822H76.2761ZM86.6192 38.9563H79.1066V12.4762H86.6192V17.5486C88.0462 13.9767 90.3283 11.8525 94.3912 12.1114V19.9554C89.084 19.5434 86.6192 20.838 86.6192 25.0807V38.9563ZM135.433 39.1622C130.509 39.1622 127.414 36.8084 127.414 31.2417V2.24902H134.979V30.2061C134.979 31.8125 136.041 32.3833 137.338 32.3833C137.712 32.3909 138.086 32.3732 138.458 32.3304V38.8562C137.469 39.0968 136.451 39.1997 135.433 39.1622ZM151.213 39.1622C146.289 39.1622 143.188 36.8084 143.188 31.2417V2.24902H150.753V30.2061C150.753 31.8125 151.821 32.3833 153.141 32.3833C153.514 32.391 153.886 32.3733 154.256 32.3304V38.8562C153.261 39.0991 152.237 39.202 151.213 39.1622ZM157.883 25.7045C157.883 17.5251 162.6 11.929 170.726 11.929C178.852 11.929 183.469 17.5074 183.469 25.7045C183.469 33.9015 178.799 39.58 170.726 39.58C162.653 39.58 157.883 33.8309 157.883 25.7045ZM165.248 25.7045C165.248 29.6882 166.922 32.8482 170.726 32.8482C174.529 32.8482 176.11 29.6882 176.11 25.7045C176.11 21.7207 174.488 18.6431 170.726 18.6431C166.964 18.6431 165.248 21.7148 165.248 25.7045ZM104.534 28.0994C106.637 28.3301 108.751 28.4537 110.867 28.4702C116.622 28.4702 121.481 26.9284 121.481 21.3676C121.481 15.9716 116.487 11.9172 110.478 11.9172C102.387 11.9172 97.204 17.7722 97.204 25.9516C97.204 34.4429 101.674 39.4859 111.775 39.4859C114.772 39.5102 117.747 38.9795 120.55 37.9206V31.5772C117.955 32.4069 115.036 33.2307 112.04 33.2307C108.019 33.2307 105.218 31.9126 104.534 28.0994ZM110.324 17.6957C112.453 17.6957 114.163 19.1374 114.163 21.1087C114.163 23.6449 111.48 24.4393 108.39 24.4393C107.075 24.4333 105.762 24.329 104.463 24.1274C104.561 22.8909 104.917 21.6884 105.507 20.5968C105.98 19.7315 106.676 19.0078 107.523 18.5C108.37 17.9922 109.337 17.7186 110.324 17.7075V17.6957Z" fill="#293856"/>
</g>
<defs>
<linearGradient id="paint0_linear_28_1931" x1="18.4266" y1="38.9563" x2="18.4266" y2="2.24902" gradientUnits="userSpaceOnUse">
<stop stop-color="#0052CC"/>
<stop offset="1" stop-color="#2684FF"/>
</linearGradient>
<clipPath id="clip0_28_1931">
<rect width="183.009" height="41.8306" fill="white"/>
</clipPath>
</defs>
</svg>
